<?xml version="1.0" encoding="UTF-8" standalone="no"?>
<!-- Created with Inkscape (http://www.inkscape.org/) -->

<svg
   xmlns:dc="http://purl.org/dc/elements/1.1/"
   xmlns:cc="http://creativecommons.org/ns#"
   xmlns:rdf="http://www.w3.org/1999/02/22-rdf-syntax-ns#"
   xmlns:svg="http://www.w3.org/2000/svg"
   xmlns="http://www.w3.org/2000/svg"
   xmlns:sodipodi="http://sodipodi.sourceforge.net/DTD/sodipodi-0.dtd"
   xmlns:inkscape="http://www.inkscape.org/namespaces/inkscape"
   id="svg4273"
   version="1.1"
   inkscape:version="0.91 r13725"
   width="2048.1001"
   height="841.79999"
   viewBox="0 0 2048.1001 841.79999"
   sodipodi:docname="isa-logo.svg">
  <metadata
     id="metadata4279">
    <rdf:RDF>
      <cc:Work
         rdf:about="">
        <dc:format>image/svg+xml</dc:format>
        <dc:type
           rdf:resource="http://purl.org/dc/dcmitype/StillImage" />
        <dc:title></dc:title>
      </cc:Work>
    </rdf:RDF>
  </metadata>
  <defs
     id="defs4277" />
  <sodipodi:namedview
     pagecolor="#ffffff"
     bordercolor="#666666"
     borderopacity="1"
     objecttolerance="10"
     gridtolerance="10"
     guidetolerance="10"
     inkscape:pageopacity="0"
     inkscape:pageshadow="2"
     inkscape:window-width="1447"
     inkscape:window-height="778"
     id="namedview4275"
     showgrid="false"
     inkscape:zoom="0.40476537"
     inkscape:cx="826.40468"
     inkscape:cy="420.89999"
     inkscape:window-x="0"
     inkscape:window-y="0"
     inkscape:window-maximized="0"
     inkscape:current-layer="svg4273" />
  <path
     style="fill:#f9f9e4;fill-opacity:1"
     d="m 356.40181,841.41706 c -13.23462,-0.62559 -21.55296,-1.96512 -34.48557,-5.55327 -25.34113,-7.03092 -46.9899,-18.1437 -65.71145,-33.73116 -3.23158,-2.69058 -11.87775,-10.68036 -12.88869,-11.91018 -0.23964,-0.29154 -1.40814,-1.57398 -2.59666,-2.84985 -13.56809,-14.56524 -25.57231,-33.69222 -35.07643,-55.88919 -10.91301,-25.4874 -14.24825,-43.13196 -15.73454,-83.24102 -0.31903,-8.60949 -1.50666,-54.5595 -1.50666,-58.2936 l 0,-2.0064 78.75941,0 c 62.74612,0 78.78283,0.0762 78.8746,0.375 0.0634,0.20625 0.26637,8.34 0.45117,18.075 0.48798,25.70538 0.879,41.37678 1.22394,49.05 0.75666,16.83327 1.96776,22.93772 6.3873,32.19437 7.82979,16.39938 14.25141,21.90066 30.35359,26.00328 12.22683,3.11523 22.46061,3.52119 33.45,1.32696 11.60304,-2.31675 21.41454,-7.62126 29.33409,-15.85929 8.39007,-8.72742 13.41378,-19.81362 14.94624,-32.98283 2.19939,-18.90084 -5.1735,-45.6495 -16.79523,-60.93249 -15.44697,-20.31336 -50.85123,-49.41345 -114.78511,-94.34616 -29.55582,-20.77182 -59.21451,-45.36174 -80.85519,-67.03674 -10.95555,-10.97292 -16.99941,-18.21933 -24.2851,-29.1171 -18.41547,-27.5454 -29.37087,-59.04759 -32.7596,-94.2 -0.74594,-7.73787 -0.74941,-26.26495 -0.006,-34.35 3.64483,-39.66305 10.65499,-68.12227 23.01886,-93.45 15.13401,-31.00246 38.21901,-54.20235 69.527,-69.87302 22.95945,-11.49197 39.28407,-16.39429 62.46045,-18.75702 15.72537,-1.60313 45.71095,-2.71623 73.24174,-2.71882 17.92056,-0.002 26.11752,0.5696 38.80827,2.70472 26.52876,4.46325 47.87196,10.91486 66.9,20.22249 29.04564,14.20779 49.60693,32.62907 63.31099,56.72165 2.55633,4.49419 8.7405,17.11429 11.34192,23.14557 7.77165,18.01826 9.6348,29.51699 10.68663,65.95443 0.40758,14.11967 1.61367,78.15162 1.47417,78.26511 -0.0625,0.0509 -21.3762,-0.0857 -47.36371,-0.30345 -25.9875,-0.2178 -61.18494,-0.5082 -78.21654,-0.64536 -17.0316,-0.13716 -31.0335,-0.31635 -31.11537,-0.39819 -0.0818,-0.0819 -0.49053,-8.84943 -0.90819,-19.48347 -0.41763,-10.63407 -0.8973,-22.30464 -1.0659,-25.93464 -1.57743,-33.95939 -3.83787,-45.33676 -10.90242,-54.87438 -6.88497,-9.29518 -14.93523,-13.54121 -28.84158,-15.21219 -4.87413,-0.58567 -20.80062,-0.49972 -25.65,0.13843 -8.81025,1.15936 -14.09175,3.50309 -20.9845,9.31213 -9.9069,8.34928 -14.76195,15.94632 -17.10795,26.77008 -1.54521,7.12914 -1.9266,14.06714 -1.05558,19.20163 2.97285,17.52399 18.08886,36.21429 52.53886,64.96215 3.44256,2.87271 9.63417,7.98477 13.75917,11.3601 41.44086,33.90942 95.00472,79.65246 121.49748,103.7577 13.51158,12.29391 29.48259,28.20126 38.88937,38.73435 31.66677,35.45844 43.3518,63.20463 46.74663,111 0.9711,13.67166 1.2687,35.21745 0.62574,45.3 -1.89531,29.72162 -7.89417,51.88742 -20.82708,76.95608 -10.32708,20.01768 -20.61282,34.33962 -35.13214,48.91824 -14.61942,14.67915 -26.55582,23.24832 -45.49977,32.66439 -31.45119,15.63279 -44.53725,18.87765 -81.70023,20.25873 -22.32909,0.8298 -72.21831,1.16958 -84.75001,0.57723 z m 652.64999,-6.65571 c -42.40496,-0.32517 -77.1965,-0.67824 -77.31446,-0.78459 -0.31308,-0.28227 -1.84629,-9.85143 -3.2172,-20.07948 -2.99481,-22.34367 -12.17229,-97.91034 -12.68589,-104.4549 -0.0782,-0.99606 -0.15174,-1.06083 -1.43241,-1.26069 -0.7425,-0.11589 -7.56,-0.37797 -15.15,-0.58239 -11.32695,-0.30507 -20.90787,-0.29184 -53.46318,0.0739 -21.81474,0.24507 -39.72564,0.50802 -39.80199,0.5844 -0.0763,0.0763 -0.82884,5.40291 -1.67217,11.83683 -4.77366,36.41895 -10.4298,77.90904 -14.10615,103.4742 -0.82857,5.76192 -1.50651,10.49907 -1.50651,10.527 0,0.0279 -12.52126,0.14334 -27.82501,0.2565 -15.30375,0.11313 -45.3075,0.33921 -66.675,0.50238 -49.17747,0.37557 -61.35699,0.0928 -65.00364,-1.50882 -2.26758,-0.99597 -2.25759,-1.46613 0.3792,-17.85327 5.28747,-32.86047 16.52196,-96.36558 25.02351,-141.45 5.52066,-29.27648 7.60077,-40.69544 12.02274,-65.99999 2.14812,-12.2925 5.92968,-33.7575 8.40345,-47.7 2.47377,-13.9425 7.46763,-42.36 11.09751,-63.15 9.38484,-53.7516 12.19173,-69.28914 17.83035,-98.7 4.97946,-25.97253 7.66458,-40.79352 13.04436,-72 9.28458,-53.85707 18.75516,-107.36614 26.73435,-151.05 6.83103,-37.398 11.51022,-62.1507 12.15039,-64.275 0.15,-0.49775 3.26766,-0.52464 60.06301,-0.51811 81.89688,0.009 135.243,0.5463 149.45478,1.50415 3.21468,0.21666 4.43556,0.40821 4.67787,0.73394 0.78966,1.06158 4.5315,20.79273 13.17157,69.45502 4.48821,25.27832 6.98697,39.09794 9.00447,49.8 0.73095,3.8775 3.89845,21.19265 7.03865,38.47812 3.1403,17.28546 7.4581,40.84296 9.595,52.35 10.9963,59.21427 15.7157,85.14048 25.2154,138.52188 10.7593,60.459 20.6346,115.08426 29.3682,162.45 6.8275,37.02795 8.4013,45.70836 13.6792,75.44999 6.8189,38.42496 12.4889,69.35997 17.4033,94.95 4.149,21.60462 5.5463,31.02927 5.5463,37.40781 l 0,3.69219 -6.975,-0.0449 c -3.8362,-0.0246 -41.67,-0.31095 -84.075,-0.63612 z M 898.79887,569.86739 c -0.005,-9.28848 -0.66342,-17.35026 -2.40903,-29.475 -1.58118,-10.98282 -2.89062,-22.4313 -5.09547,-44.55 -2.169,-21.7593 -3.70431,-36.13152 -8.09193,-75.75 -4.07097,-36.7593 -5.8959,-53.54412 -9.89943,-91.05 -7.04556,-66.00405 -9.98448,-89.7 -11.12523,-89.7 -0.15177,0 -0.27594,0.11122 -0.27594,0.24716 0,0.13594 -0.19923,1.58719 -0.44277,3.225 -0.80055,5.38431 -3.69492,28.96106 -6.58968,53.67784 -2.81526,24.03792 -5.46909,47.24472 -13.07094,114.3 -5.11806,45.14619 -9.12348,79.84695 -11.7216,101.55 -3.20733,26.79165 -4.58148,39.33054 -5.96727,54.45 -0.3327,3.63 -0.68133,7.17375 -0.77472,7.875 l -0.16977,1.275 37.81836,0 37.81839,0 -0.003,-6.075 z M 14.701801,834.52531 C 9.5042997,834.37696 4.4417997,834.15118 3.4517997,834.02356 L 1.6517999,833.79157 1.4551277,831.69196 C 1.0969781,827.86852 0.59661388,770.86474 0.30041988,700.14238 0.13975298,661.77989 0.00683608,513.43778 0.00504898,370.49324 L 0.00179898,110.5941 17.3268,110.78461 c 24.614497,0.27067 125.17609,1.05639 135.3,1.05715 l 8.475,6.3e-4 0,361.15233 0,361.15232 -22.875,0.19824 c -40.508491,0.35103 -113.792586,0.45783 -123.525,0.18003 z M 1543.8018,822.50611 c -32.4764,-0.82845 -58.2233,-6.35004 -80.85,-17.33883 -12.131,-5.89149 -21.6466,-12.56046 -30.0642,-21.07044 -4.3838,-4.43184 -7.1877,-7.87062 -10.339,-12.67983 -6.69,-10.20945 -9.0531,-17.64507 -9.8956,-31.13619 -0.6981,-11.17833 0.7611,-27.03591 4.1351,-44.93844 0.5753,-3.0525 2.1774,-10.815 3.5603,-17.25 5.0105,-23.31551 6.4524,-32.57387 6.4531,-41.43569 0,-9.73743 -1.8768,-14.66664 -7.7838,-20.43471 -5.1959,-5.07372 -7.193,-5.75448 -17.7159,-6.03897 -13.8658,-0.37491 -23.6359,0.47022 -38.1,3.29565 -41.172,8.04255 -100.4952,29.17638 -199.05,70.9112 -33.2325,14.07297 -51.3127,21.15252 -54.0204,21.15252 -1.0046,0 -1.6009,-1.34985 -2.9892,-6.7665 -1.0847,-4.23237 -1.369,-5.75535 -6.2962,-33.73349 -8.0203,-45.54156 -22.1965,-124.14144 -38.0919,-211.2 -11.9844,-65.63853 -15.5051,-85.0896 -23.4032,-129.3 -7.4172,-41.51846 -9.0513,-50.52331 -15.2978,-84.3 -9.285,-50.20706 -17.9542,-97.78367 -21.1278,-115.95 -2.1675,-12.40725 -2.44,-14.31864 -2.0996,-14.72877 0.5539,-0.66735 3.2018,-1.02671 9.6956,-1.3158 8.7764,-0.39072 15.359,-1.35015 27.0305,-3.93981 29.4843,-6.541915 71.2182,-19.648155 170.7,-53.607105 69.0571,-23.57322 113.1448,-36.40608 151.1466,-43.9951398 14.6076,-2.91719 28.8715,-4.9904 42.8034,-6.22136004 6.7612,-0.59739 27.4514,-0.50649 33.3,0.14629 16.0823,1.79499004 28.5384,5.28444004 40.8,11.42973984 17.1917,8.61613 26.571,18.77554 34.5111,37.38195 6.6014,15.46903 7.178,21.08033 7.1852,69.924285 l 0,25.07427 7.575,0.81095 c 12.1503,1.30075 13.6878,1.38621 29.925,1.66345 45.5528,0.77779 137.3326,-1.88734 169.5,-4.92199 19.9316,-1.88033 57.3846,-8.78769 84.658,-15.61322 41.0385,-10.27043 75.8995,-22.62868 110.1922,-39.063145 9.2516,-4.43375 17.0468,-7.8746 17.8398,-7.8746 0.8175,0 0.9488,0.62425 1.6408,7.8 1.03,10.68093 2.133,28.290935 3.4671,55.350005 1.0178,20.64556 1.4898,29.10095 2.562,45.9 11.1046,173.98122 39.1259,324.27402 80.8016,433.38099 3.7693,9.86796 5.6344,14.4855 10.8331,26.81901 6.812,16.16133 11.1056,28.06715 11.1056,30.79511 0,0.55077 -0.2423,0.99981 -0.7022,1.3011 -2.8754,1.88406 -49.3952,22.1772 -78.1664,34.09824 -20.029,8.29878 -66.7913,26.04825 -101.4314,38.50014 -48.2925,17.35938 -86.178,29.19372 -133.0491,41.56062 -74.01,19.52751 -138.8629,28.88724 -190.951,27.55851 z M 1232.9935,408.53726 c 21.493,-1.09674 31.2632,-2.30208 44.0936,-5.43981 12.4213,-3.03765 30.7379,-11.1603 41.3997,-18.35907 14.226,-9.60531 37.0283,-29.80689 37.9959,-33.66234 0.1058,-0.42138 0.025,-0.93546 -0.1869,-1.19091 -0.5448,-0.65649 -3.8781,-1.57434 -7.5628,-2.08245 -6.2837,-0.86655 -7.9525,-2.53404 -10.8188,-10.81029 -2.4715,-7.13622 -2.6167,-10.95078 -0.6453,-16.95 0.9654,-2.93793 1.1351,-3.85077 1.1433,-6.15 0.011,-3.22281 -0.6032,-4.98609 -3.8726,-11.10843 -5.2754,-9.87866 -5.7663,-12.02564 -3.7824,-16.54185 1.4794,-3.36773 1.2104,-4.77983 -1.4185,-7.44642 -2.6234,-2.66103 -4.3455,-2.58914 -14.0913,0.58825 -7.0098,2.2854 -11.2713,3.45244 -12.6211,3.45635 -0.5201,0.002 -1.497,-0.78354 -3.4504,-2.7729 -3.2376,-3.29711 -5.6316,-6.40747 -12.1327,-15.76321 l -4.8559,-6.98821 2.7516,-5.41418 c 3.0643,-6.02942 5.589,-9.9879 8.7296,-13.68767 6.5861,-7.75852 15.6329,-13.8082 23.9121,-15.99023 3.3317,-0.8781 9.636,-1.56536 12.6212,-1.37591 3.1712,0.20125 4.7902,0.75213 6.8959,2.34639 3.6679,2.77696 7.1062,3.67758 13.2041,3.45868 8.2673,-0.29677 14.8661,-3.27113 15.9172,-7.17447 0.4495,-1.66916 -0.016,-3.30254 -1.0785,-3.78678 -1.0287,-0.4687 -3.5816,-0.43222 -7.0387,0.10059 -6.6434,1.02388 -8.8855,0.40764 -11.1781,-3.07237 -0.7603,-1.15405 -1.6147,-2.18744 -1.8987,-2.29643 -0.6097,-0.23396 -1.5159,0.541 -3.0144,2.57802 -2.1439,2.91431 -2.9968,2.4009 -8.9588,-5.39291 -1.155,-1.50989 -2.1675,-2.74956 -2.25,-2.75483 -0.082,-0.005 -0.8887,1.35553 -1.7916,3.024 -2.1522,3.977 -4.0328,5.52243 -8.1174,6.67073 -4.1129,1.15624 -7.7698,0.86115 -9.3885,-0.75761 -0.8726,-0.87254 -0.8827,-0.92035 -0.6896,-3.23663 0.5386,-6.45797 3.3888,-12.60962 5.8439,-12.61309 2.8579,-0.004 5.6805,-4.62868 5.9679,-9.77782 0.1829,-3.27803 -0.126,-4.38365 -1.7356,-6.21224 -1.8516,-2.1036 -2.7576,-2.10652 -5.2129,-0.0168 -1.4551,1.23851 -2.8931,1.56242 -3.9275,0.88467 -1.539,-1.00842 -0.7729,-2.86351 2.3148,-5.60497 2.3078,-2.04895 3.4896,-4.12052 3.8657,-6.77631 0.3174,-2.24127 0.7686,-3.33924 1.5688,-3.81777 0.8901,-0.53228 2.8734,1.94296 4.9747,6.20864 1.9693,3.99773 2.9414,6.66474 3.2263,8.85146 0.2242,1.72164 0.5107,2.11062 2.051,2.78545 4.123,1.80627 10.05,0.23682 10.05,-2.6612 0,-0.84776 0.6588,-2.03126 1.4863,-2.67004 0.255,-0.19691 1.2062,-0.44781 2.1137,-0.55755 0.9075,-0.10974 2.19,-0.43325 2.85,-0.71892 2.3471,-1.01588 4.4278,-4.28694 3.8834,-6.10526 -0.1086,-0.36314 -0.6219,-1.33217 -1.1405,-2.15339 -1.382,-2.1885 -1.3042,-3.93135 0.3431,-7.69331 1.3041,-2.97797 1.588,-4.65806 0.8359,-4.94667 -0.6503,-0.24955 -2.9047,0.86207 -4.0295,1.98694 -2.2632,2.2632 -3.5153,5.28953 -3.7988,9.18214 -0.2491,3.42099 -0.8439,5.29271 -1.9878,6.25518 -1.7463,1.46944 -3.9505,0.65345 -7.0177,-2.59791 -3.7985,-4.02665 -5.4089,-7.27814 -5.179,-10.45667 0.1634,-2.25916 1.8611,-5.69947 4.7306,-9.58656 2.8078,-3.80351 6.9103,-9.85936 6.9103,-10.20056 0,-0.94822 -17.1792,-13.04103 -26.4417,-18.61294 -5.5354,-3.32983 -14.8162,-7.93567 -20.41,-10.12897 -12.8862,-5.05269 -25.9754,-7.73749 -42.8415,-8.78747 -6.334,-0.39432 -25.7662,-0.19633 -31.2068,0.31796 -23.145,2.18787 -41.0375,7.83446 -58.8,18.55634 -10.7733,6.50306 -24.0038,16.65824 -32.5073,24.9512 -4.6437,4.52864 -6.8121,7.09381 -7.7072,9.11744 -0.5416,1.2243 -0.5606,1.46459 -0.1858,2.35036 0.5447,1.28727 1.2159,1.8575 3.2105,2.72782 3.3327,1.45413 10.3179,2.62415 16.1898,2.7118 5.241,0.0782 5.6705,-0.4609 6.6334,-8.32714 0.3229,-2.638 0.621,-4.83026 0.6625,-4.87169 0.041,-0.0414 3.6148,3.34963 7.9408,7.53568 8.5695,8.29214 11.039,10.36017 12.3715,10.36017 0.807,0 0.8591,-0.0837 1.0617,-1.70509 0.2435,-1.94864 1.1265,-3.09491 2.384,-3.09491 0.4297,0 2.3596,0.3938 4.2887,0.8751 1.9291,0.48132 5.1949,1.23901 7.2574,1.68376 6.5847,1.41992 9.248,2.79353 12.9394,6.67343 3.5965,3.78012 7.7267,10.47097 8.8234,14.29389 0.6858,2.39045 0.4733,5.46193 -0.5308,7.67382 -0.9132,2.01179 -3.2284,5.18726 -4.2881,5.88161 -1.3529,0.88647 -1.6776,0.52383 -7.035,-7.85823 -1.7072,-2.67099 -4.2075,-5.52338 -4.8417,-5.52338 -0.6211,0 -4.8071,4.53281 -6.9432,7.51833 -2.6958,3.76779 -4.126,6.61538 -4.1169,8.19698 0.01,1.54437 1.0113,4.01155 2.7877,6.8617 2.6978,4.32844 4.979,6.2603 6.6446,5.62704 1.2086,-0.4595 1.6962,-2.04865 1.9793,-6.4503 0.2628,-4.08501 0.8914,-6.87832 1.6101,-7.1541 1.7082,-0.65548 8.6508,7.44581 16.1544,18.85035 5.9214,8.99979 8.9943,15.08403 8.2865,16.40674 -0.535,0.99963 -3.0479,0.45431 -7.2332,-1.56968 -1.3501,-0.65288 -2.6141,-1.18706 -2.8089,-1.18706 -0.6842,0 -1.1548,0.98031 -1.347,2.80624 -0.1067,1.01407 -0.5655,2.78876 -1.0196,3.94376 -1.4596,3.71267 -5.7147,12.12913 -9.3278,18.45 -10.294,18.0085 -13.1347,27.02841 -9.9512,31.597 0.3807,0.54635 1.6818,1.36832 3.6656,2.31568 4.4443,2.12242 8.8335,5.50981 10.9814,8.47489 1.7061,2.35521 0.7568,3.27219 -2.7625,2.66871 -4.0819,-0.69996 -9.0753,-3.08235 -12.0651,-5.75628 -1.8054,-1.6147 -3.8002,-4.58857 -3.8043,-5.67151 -0.012,-3.268 -6.0702,-9.78284 -11.6865,-12.56795 -2.1906,-1.08628 -2.3085,-1.10932 -5.4,-1.05483 -9.0194,0.15898 -14.997,3.50623 -14.2791,7.99579 0.3777,2.36196 1.4099,3.40107 3.9185,3.94479 1.5691,0.34008 4.3183,3.50202 6.133,7.05371 2.0369,3.98691 3.3169,5.87799 5.9029,8.72145 3.919,4.30914 7.9804,7.46862 9.6098,7.47573 0.4418,0.003 0.74,-0.26784 0.9445,-0.85449 0.5226,-1.49916 4.74,-3.40677 11.4598,-5.18349 2.8185,-0.7452 4.3834,-0.99279 6.3,-0.99675 3.703,-0.007 4.8216,0.65421 11.85,7.01124 9.3231,8.43237 12.501,10.12563 19.7564,10.52646 5.1372,0.28377 5.6944,0.5676 5.8349,2.97231 0.2555,4.37127 -2.7453,13.03845 -6.5886,19.02972 -2.8959,4.51449 -4.5378,9.16182 -4.8922,13.84782 -0.3809,5.0349 -1.3979,7.43337 -3.7116,8.7534 -2.0807,1.1871 -2.4489,1.58568 -2.4489,2.65086 0,0.52869 0.4753,1.99002 1.0563,3.24744 1.8816,4.07253 1.7259,4.92096 -1.1534,6.28428 -1.9936,0.94392 -2.6029,1.74534 -2.6029,3.42393 0,2.76642 1.7593,6.22512 8.3244,16.36509 3.1672,4.89186 4.1673,6.225 4.6697,6.225 0.3516,0 5.9756,-0.27231 12.4976,-0.60513 z m -18.5307,-209.94931 c -3.9506,-9.58981 -5.5594,-17.68317 -7.2548,-36.49556 -0.4907,-5.445 -0.9742,-10.7882 -1.0745,-11.87378 l -0.1823,-1.97378 7.7503,-3.49001 c 16.3469,-7.36112 27.521,-10.76492 35.5003,-10.81402 5.0669,-0.0312 7.5669,0.90313 14.6229,5.46494 1.69,1.09266 3.0738,2.12472 3.075,2.29348 0,0.6124 -2.291,4.15939 -5.3904,8.33004 -3.9102,5.26165 -4.7655,6.60028 -6.275,9.82153 -1.6847,3.59511 -2.598,7.01007 -3.147,11.76766 -0.489,4.23857 -0.9648,5.88742 -2.0237,7.01459 -1.0406,1.10771 -3.9019,2.16953 -9.1573,3.3983 -7.7784,1.81868 -10.2162,2.81115 -12.9561,5.2745 -1.9754,1.77611 -3.3195,3.67102 -7.5445,10.63655 -1.8515,3.0525 -3.4535,5.64206 -3.5601,5.75457 -0.1066,0.11251 -1.1788,-2.18655 -2.3828,-5.10901 z m 61.8001,-23.18402 c -2.4164,-1.19611 -3.7542,-3.93684 -3.0859,-6.32188 0.8346,-2.97786 3.8322,-5.79263 7.3233,-6.87643 3.5724,-1.10902 5.8134,-0.37408 7.1258,2.33687 1.8433,3.8077 -0.044,8.46364 -4.2909,10.58585 -2.3268,1.16271 -5.0645,1.2694 -7.0723,0.27559 z m -89.7611,-17.17361 c -7.8379,-2.81128 -9.4559,-4.18248 -7.0768,-5.99716 0.5989,-0.45674 1.238,-1.34269 1.541,-2.136 0.4529,-1.18598 0.4707,-1.57701 0.142,-3.12573 -0.3633,-1.71194 -0.3482,-1.82069 0.4604,-3.30632 1.0981,-2.01761 5.1527,-5.89403 9.7561,-9.32748 9.5773,-7.14314 12.4136,-8.46838 16.6694,-7.78853 3.9486,0.6308 12.329,3.48433 14.589,4.96755 0.9627,0.63177 1.0848,0.82899 0.8199,1.32401 -0.5054,0.94432 -5.4885,4.05389 -10.801,6.74012 -6.0814,3.07505 -9.6894,4.58613 -12.2089,5.11327 -2.7511,0.5756 -2.8976,0.75372 -2.654,3.22584 0.2942,2.9857 -0.3114,4.55999 -2.7472,7.14207 -2.3565,2.49799 -4.3639,3.88268 -5.6163,3.8741 -0.508,-0.003 -1.8011,-0.32106 -2.8736,-0.70574 z m 12.7286,244.74065 c 0.2593,-0.25929 0.4714,-0.63435 0.4714,-0.83346 0,-0.64533 -1.9624,-4.45875 -4.1748,-8.11266 -3.3194,-5.48208 -6.4385,-10.97319 -11.2656,-19.83246 -4.7073,-8.63952 -7.3592,-12.88368 -9.6242,-15.40293 -1.6399,-1.82394 -2.193,-2.16588 -3.686,-2.27859 -0.6046,-0.0457 -1.8419,-0.52116 -2.7494,-1.05666 -5.9033,-3.48354 -16.6629,-14.62707 -17.2754,-17.89182 -0.3585,-1.91115 1.7707,-5.60205 7.2776,-12.61521 1.7038,-2.16984 3.0978,-4.01505 3.0978,-4.10046 0,-0.0854 -5.0962,-4.93884 -11.325,-10.78545 -17.8765,-16.77976 -21.3845,-20.7421 -25.5615,-28.8721 -4.2029,-8.18038 -9.1588,-23.61891 -9.9112,-30.87503 -0.5734,-5.52959 -3.5026,-12.74086 -9.5749,-23.57175 -3.6237,-6.46364 -4.388,-8.95345 -3.6492,-11.88771 0.1968,-0.78157 1.1735,-3.18532 2.1705,-5.34167 2.4976,-5.40207 3.2513,-7.47399 3.2513,-8.93718 0,-1.11181 -0.1643,-1.40657 -1.4599,-2.61815 -1.9102,-1.78643 -6.07,-4.23616 -7.5246,-4.43126 -1.0974,-0.14719 -1.1836,-0.0952 -1.915,1.15592 -4.1601,7.1154 -10.6596,35.12566 -11.9177,51.36057 -0.4472,5.77063 -0.2211,17.66445 0.4543,23.89948 2.5863,23.87397 10.7318,48.19245 22.6337,67.57293 14.27,23.23671 43.0272,47.76276 68.6183,58.52244 4.9807,2.09412 15.2573,5.78841 18.4524,6.63336 3.3011,0.87303 4.5422,0.94476 5.1871,0.29985 z m 187.7607,-152.63389 c 1.1489,-0.48003 2.8251,-2.29883 3.0895,-3.35238 0.4549,-1.81244 -1.7861,-3.04753 -5.0051,-2.75853 -3.8376,0.34454 -4.9753,2.40448 -2.7732,5.02146 1.2693,1.50849 2.8223,1.86933 4.6888,1.08945 z"
     id="path4302"
     inkscape:connector-curvature="0" />
</svg>
