<?xml version="1.0" encoding="UTF-8" standalone="no"?>
<svg
   xmlns:dc="http://purl.org/dc/elements/1.1/"
   xmlns:cc="http://creativecommons.org/ns#"
   xmlns:rdf="http://www.w3.org/1999/02/22-rdf-syntax-ns#"
   xmlns:svg="http://www.w3.org/2000/svg"
   xmlns="http://www.w3.org/2000/svg"
   xmlns:sodipodi="http://sodipodi.sourceforge.net/DTD/sodipodi-0.dtd"
   xmlns:inkscape="http://www.inkscape.org/namespaces/inkscape"
   sodipodi:docname="computer-hand.svg"
   inkscape:version="1.0 (4035a4f, 2020-05-01)"
   id="svg1495"
   version="1.1"
   viewBox="0 0 232.99879 173.43106"
   height="173.43106mm"
   width="232.99879mm">
  <defs
     id="defs1489" />
  <sodipodi:namedview
     inkscape:window-maximized="0"
     inkscape:window-y="23"
     inkscape:window-x="0"
     inkscape:window-height="749"
     inkscape:window-width="1252"
     fit-margin-bottom="0"
     fit-margin-right="0"
     fit-margin-left="0"
     fit-margin-top="0"
     showgrid="false"
     inkscape:document-rotation="0"
     inkscape:current-layer="layer1"
     inkscape:document-units="mm"
     inkscape:cy="390.60088"
     inkscape:cx="583.16983"
     inkscape:zoom="0.35"
     inkscape:pageshadow="2"
     inkscape:pageopacity="0.0"
     borderopacity="1.0"
     bordercolor="#666666"
     pagecolor="#ffffff"
     id="base" />
  <metadata
     id="metadata1492">
    <rdf:RDF>
      <cc:Work
         rdf:about="">
        <dc:format>image/svg+xml</dc:format>
        <dc:type
           rdf:resource="http://purl.org/dc/dcmitype/StillImage" />
        <dc:title></dc:title>
      </cc:Work>
    </rdf:RDF>
  </metadata>
  <g
     transform="translate(48.463684,-44.820183)"
     id="layer1"
     inkscape:groupmode="layer"
     inkscape:label="Layer 1">
    <g
       transform="matrix(0.24182363,0,0,0.24182363,18.468563,6.1526375)"
       id="g1453">
      <path
         id="path1403"
         d="m -136.38347,160.62755 c 0,0 -9.0914,71.7209 -10.1015,84.8528 -1.0102,13.132 3.0304,24.2437 14.1421,28.2843 11.1117,4.0406 680.8428,279.8123 694.985,284.863 14.1421,5.0508 18.1827,6.0609 33.335,-17.1726 15.1523,-23.2335 89.90362,-141.4213 89.90362,-141.4213"
         style="fill:none;fill-opacity:1;stroke:#0b4541;stroke-width:2;stroke-linecap:butt;stroke-linejoin:miter;stroke-miterlimit:4;stroke-dasharray:none;stroke-opacity:1" />
      <path
         id="path1405"
         d="m -94.967174,161.63775 -11.111696,69.7005 672.7616,268.7006 117.1777,-206.0711 0.76852,-134.06797 z"
         style="fill:#0b4541;fill-opacity:1;stroke:none;stroke-width:2;stroke-linecap:butt;stroke-linejoin:miter;stroke-miterlimit:4;stroke-dasharray:none;stroke-opacity:1" />
      <path
         id="path1407"
         d="m 528.29693,876.82575 c 0,0 55.5584,-269.7107 57.5787,-280.8224 2.0203,-11.1117 -11.1117,-31.3148 -19.1929,-34.3452 -8.0812,-3.0305 -685.8936,-281.8326 -702.056,-287.8935 -16.1625,-6.0609 -37.3757,6.0609 -44.4467,12.1218 -7.0711,6.061 -93.94424,95.9645 -93.94424,95.9645"
         style="fill:none;fill-opacity:1;stroke:#0b4541;stroke-width:2;stroke-linecap:butt;stroke-linejoin:miter;stroke-miterlimit:4;stroke-dasharray:none;stroke-opacity:1"
         sodipodi:nodetypes="cssssc" />
      <path
         id="path1409"
         style="fill:#0b4541;fill-opacity:1;stroke:none;stroke-width:2;stroke-linecap:butt;stroke-linejoin:miter;stroke-miterlimit:4;stroke-dasharray:none;stroke-opacity:1"
         d="m -131.69727,670.8457 c -7.53076,-0.30111 -14.34593,3.12886 -17.81835,7.99024 -5.05071,7.0711 -122.22852,173.74609 -122.22852,173.74609 l -5.03711,24.23047 H 8.6035156 c -4.2876779,-27.79587 -11.409751,-47.75076 -12.1230468,-53.45703 -0.7143,-5.7143 1.4296874,-33.57031 1.4296874,-38.57031 0,-3.20904 0.8560259,-28.495 1.4882813,-48.68946 l -0.421875,-1.70117 c 0,0 -109.0953325,-54.54847 -120.2070325,-60.60937 -3.47241,-1.89404 -7.04372,-2.80259 -10.4668,-2.93946 z"
         transform="translate(0,-3.9490035e-5)" />
      <path
         id="path1411"
         style="fill:#0b4541;fill-opacity:1;stroke:none;stroke-width:2;stroke-linecap:butt;stroke-linejoin:miter;stroke-miterlimit:4;stroke-dasharray:none;stroke-opacity:1"
         d="m -133.87695,322.10547 c -3.92857,-0.17859 -6.07004,1.24973 -8.21289,3.39258 -0.60202,0.60203 -4.06701,4.34846 -8.87305,9.5664 l 37.0293,15.80664 14.007809,-16.04297 c -7.734679,-3.29874 -13.583939,-5.80917 -15.021489,-6.47265 -9.2857,-4.2857 -15.00112,-6.07141 -18.92968,-6.25 z m 35.197262,13.25195 1.291016,1.12891 -13.642578,15.62305 41.652344,17.78124 -0.365235,-0.25976 11.996094,-16.93164 c -15.965854,-6.75148 -31.721462,-13.41626 -40.931641,-17.3418 z m -53.472652,1 c -6.81345,7.40141 -17.54285,19.10772 -28.85352,31.45313 l 37.92188,16.4414 27.07617,-31.00586 -36.67188,-15.65429 z m 95.507809,16.8086 1.492187,1.05664 -11.824218,16.69336 573.208982,244.68359 c 1.63766,-6.14611 2.75404,-10.29931 3.10547,-11.5293 2.8571,-10 -7.5e-4,-12.85633 -8.57227,-16.42773 C 493.66884,584.68559 92.933464,416.41243 -56.644531,353.16602 Z m -56.460939,1.31836 -27.08984,31.01953 311.97265,135.2539 c 1.53055,-0.61467 2.91595,-0.97265 3.98828,-0.97265 4.2857,0 12.14367,4.28602 13.57227,7.85742 0.0948,0.23696 0.27538,0.6017 0.41797,0.91015 l 304.46484,131.99805 -1.19336,2.75195 -252.75781,-109.58007 c 5.05443,3.59497 10.75371,8.27596 14.06836,10.34765 5.7142,3.5714 27.85634,22.14204 31.42773,26.42774 3.57151,4.2858 12.85722,10.00032 15,12.85742 2.14291,2.8571 0.71539,6.42892 6.42969,2.85742 5.7143,-3.5714 12.14204,-6.42796 16.42774,0.71484 4.2857,7.1429 11.42904,20 15.71484,30 1.50028,3.50068 3.8416,8.63785 6.30469,13.94141 l 135.3125,60.21484 c 9.66929,-36.54995 19.2829,-72.95486 24.49804,-92.55468 z m -70.04297,15.66601 c -10.15655,11.08719 -18.58306,20.28101 -29.53711,32.25391 l 62.62305,27.86718 -1.76367,-1.43359 27.10351,-33.35742 z m 61.28321,26.57031 -27.50977,33.85742 304.2207,135.38282 c -0.65115,-6.83366 -1.22265,-13.54791 -1.22265,-17.60547 0,-7.8572 1.4285,-12.85742 5,-17.85742 2.02099,-2.82942 5.87026,-5.88624 9.60937,-8.00782 z m -92.95508,8.01758 c -15.30484,16.72974 -19.85932,21.71645 -30.58594,33.45117 l 72.85156,33.17969 28.50977,-35.13672 z m 73.61133,32.75781 -28.52344,35.15821 20.41211,9.29687 0.20898,-0.25586 0.98242,0.79883 223.906254,101.97852 c 0.240861,-1.10182 0.505553,-2.27193 0.703125,-3.25977 1.4286,-7.1428 4.286565,-13.57172 8.572265,-17.85742 4.2858,-4.2857 6.427413,-6.42806 13.570313,-9.28516 7.142803,-2.8572 9.287113,-0.71452 14.287113,2.14258 5,2.8572 12.85601,8.57227 13.57031,13.57227 0.7143,5 1.42805,7.1428 4.28515,15 2.70142,7.42868 6.6438,19.85963 9.48438,29.05273 l 18.26172,8.31836 c 0.0157,-4.39814 0.11133,-8.51313 0.11133,-11.6582 0,-8.5715 -1.42828,-17.85688 -2.14258,-27.14258 -0.2826,-3.67365 -0.7921,-8.75605 -1.30078,-13.96289 z m -106.32422,3.02149 c -9.107,9.96327 -27.41407,29.98047 -27.41407,29.98047 l 2.33594,62.47851 28.99414,-33.49804 -28.39648,-13.33594 1.27539,-2.71485 89.10937,41.84961 -1.76757,-1.43945 32.11914,-39.48047 z m 99.07617,45.125 -32.5,39.94922 196.822264,92.43359 c 1.33685,-0.23228 2.745468,-0.38281 4.1875,-0.38281 7.1429,0 16.4286,1.4286 20,5 1.942671,1.94261 5.980967,6.43162 9.621094,11.26172 l 19.634766,9.2207 c 0.0097,-0.13959 0.01955,-0.34598 0.0293,-0.48242 0.7142,-10 2.857421,-32.14312 2.857421,-37.85742 1e-6,-4.20374 1.547512,-11.10722 2.933594,-17.31055 z m -92.33985,15.16015 -31.65039,36.56641 0.35743,9.55859 38.40625,18.70899 36.75,-44.23438 z m 46.66797,21.91797 -36.77539,44.26953 44.28711,21.57227 34.94141,-45.9043 z m 386.06055,10.04492 c 2.85757,5.2514 7.23627,12.68678 10.26367,17.73243 4.2857,7.1429 8.57031,17.14453 8.57031,17.14453 0,0 2.14345,-5.71485 5.71485,-10.71485 3.144,-4.40164 9.05387,-7.13937 13.34765,-7.73242 z m -340.83008,11.19727 -34.96875,45.93945 188.1660181,91.65821 c 0.00986,-0.10947 0.030088,-0.23997 0.039063,-0.34766 0.7142,-8.5714 2.1425782,-12.14226 2.1425782,-19.28516 v -40.71484 c -1e-7,0 1.9362603,-1.0522 4.8203117,-2.01562 l -100.830078,-47.35352 -32.033203,47.35352 -2.48438,-1.68165 31.769536,-46.96289 z m 378.95117,60.10742 c 0,0 1.78516,11.78602 1.78516,15.35742 0,3.5715 5.71484,25.35743 5.71484,25.35743 0,0 3.92774,-20 3.92774,-27.5 0,-7.5 -3.92774,-8.21485 -11.42774,-13.21485 z m -88.66796,13.58203 c 2.82838,9.90446 6.67185,27.4751 8.66796,32.13282 2.1429,5 4.28603,9.99923 7.85743,11.42773 3.5714,1.4286 4.28547,-7.85688 2.14257,-17.14258 -1.16251,-5.03768 -1.47413,-11.95626 -1.52539,-18.61133 z m -88.238286,21.19727 c 1.529068,2.4025 2.75269,4.71073 3.333985,6.64844 2.1429,7.1428 6.429687,28.57281 6.429687,34.28711 0,5.7143 -0.714843,12.14257 -0.714844,12.14257 l 0.492188,2.94922 3.625,0.81446 c 0.824631,-4.46595 1.597656,-9.83771 1.597656,-14.47852 0,-8.95161 0.574792,-24.47171 1.207032,-34.86328 z m 294.429686,16.16211 c 4.00682,8.4996 8.02423,16.6662 9.61914,19.05859 2.8571,4.2857 5,6.42774 5,16.42774 0,10 -0.71484,10.00064 -0.71484,20.71484 0,0.93923 -0.0359,2.09939 -0.0859,3.34766 l 105.70703,48.14453 -1.24218,2.73047 L 361.2266,717.7793 c -0.79288,13.91835 -3.3164,38.34027 -3.3164,45.57617 0,2.02423 -0.33567,6.38796 -0.83204,11.82031 30.92387,13.87734 63.10127,28.23078 70.11719,31.03711 14.2857,5.7143 24.99914,10.71398 26.42774,7.14258 0.70004,-1.75019 13.47507,-49.90217 26.58984,-99.4707 l -0.0566,0.12695 z"
         transform="translate(0,-3.9490035e-5)" />
      <path
         transform="translate(0,-3.9490035e-5)"
         d="m 356.48047,781.92773 -0.0879,0.37305 c -0.82973,8.35603 -1.86613,17.97682 -2.7832,26.45313 l 31.1621,15.37304 7.42383,-25.05664 z m -3.21289,30.00196 c -0.85231,7.87615 -1.56671,14.49583 -1.78711,17.14062 -0.30543,3.66504 -1.52826,9.94907 -2.82422,16.38086 l 26.39648,11.47656 8.85352,-29.88281 z"
         style="fill:#0b4541;fill-opacity:1;stroke:none;stroke-width:2;stroke-linecap:butt;stroke-linejoin:miter;stroke-miterlimit:4;stroke-dasharray:none;stroke-opacity:1"
         id="path1413" />
      <path
         sodipodi:nodetypes="cccccc"
         id="path1415"
         d="m 392.19493,829.78465 50.7143,23.69399 -5,22.73451 -25,0.7143 -29.2857,-16.4285 z"
         style="fill:#0b4541;fill-opacity:1;stroke:none;stroke-width:2;stroke-linecap:butt;stroke-linejoin:miter;stroke-miterlimit:4;stroke-dasharray:none;stroke-opacity:1" />
      <path
         id="path1417"
         style="fill:none;fill-opacity:1;stroke:#0b4541;stroke-width:2;stroke-linecap:butt;stroke-linejoin:miter;stroke-miterlimit:4;stroke-dasharray:none;stroke-opacity:1"
         d="m 345.05273,876.21289 v -10 c 0,-5.7142 5.71344,-28.57118 6.42774,-37.14258 0.7143,-8.5714 6.42969,-57.14344 6.42969,-65.71484 0,-8.5714 3.57031,-41.42828 3.57031,-52.14258 0,-10.7142 0.71484,-10.71484 0.71484,-20.71484 0,-10 -2.1429,-12.14204 -5,-16.42774 -2.8571,-4.2857 -13.57172,-27.14258 -17.85742,-37.14258 -4.2858,-10 -11.42914,-22.8571 -15.71484,-30 -4.2857,-7.1428 -10.71344,-4.28624 -16.42774,-0.71484 -5.7143,3.5715 -4.28679,-3.2e-4 -6.42969,-2.85742 -2.14279,-2.8571 -11.42849,-8.57162 -15,-12.85742 -3.5714,-4.2857 -25.71353,-22.85634 -31.42773,-26.42774 -5.7143,-3.5715 -18.57172,-15 -22.85742,-15 -4.2857,0 -11.4286,2.85742 -15,7.85742 -3.5714,5 -5.71485,10.71485 -5.71485,10.71485 0,0 -4.28461,-10.00163 -8.57031,-17.14453 -4.2857,-7.1428 -11.42892,-19.28407 -12.85742,-22.85547 -1.4286,-3.5714 -9.28657,-7.85742 -13.57227,-7.85742 -4.28569,0 -13.57117,5.71289 -17.14257,10.71289 -3.5715,5 -5,10.00022 -5,17.85742 0,7.8571 2.14312,25.7143 2.85742,35 0.7143,9.2857 2.14258,18.57108 2.14258,27.14258 0,8.5714 -0.71312,24.28656 1.42968,33.57226 2.1429,9.2857 1.42883,18.57118 -2.14257,17.14258 -3.5714,-1.4285 -5.71453,-6.42773 -7.85743,-11.42773 -2.1428,-5 -6.4299,-25.00141 -9.28711,-34.28711 -2.8571,-9.2858 -7.14279,-22.85579 -10,-30.71289 -2.8571,-7.8572 -3.57085,-10 -4.28515,-15 -0.7143,-5 -8.57031,-10.71507 -13.57031,-13.57227 -5,-2.8571 -7.14431,-4.99978 -14.287113,-2.14258 -7.1429,2.8571 -9.284513,4.99946 -13.570313,9.28516 -4.2857,4.2857 -7.143665,10.71462 -8.572265,17.85742 -1.4286,7.1429 -4.285157,17.85797 -4.285157,23.57227 0,5.7143 -2.143221,27.85742 -2.857421,37.85742 -0.7143,10 -1.427735,28.57031 -1.427735,38.57031 0,10 -3.572265,23.57227 -3.572265,23.57227 l -2.142579,-12.85743 c 10e-7,0 0.714844,-6.42827 0.714844,-12.14257 0,-5.7143 -4.286787,-27.14431 -6.429687,-34.28711 -2.1428,-7.1429 -12.856235,-19.28407 -16.427735,-22.85547 -3.5714,-3.5714 -12.8571,-5 -20,-5 -7.1428,0 -13.5722652,3.57031 -13.5722652,3.57031 v 40.71484 c 0,7.1429 -1.4283782,10.71376 -2.1425782,19.28516 -0.7143,8.5715 -4.28515623,22.85774 -4.28515623,30.71484 0,7.8572 -2.14257817,67.85743 -2.14257817,72.85743 0,5 -2.1439874,32.85601 -1.4296874,38.57031 0.7143,5.7143 7.8568781,25.71516 12.1425781,53.57226 M 230.05273,604.07031 c 7.5,5 11.42774,5.71485 11.42774,13.21485 0,7.5 -3.92774,27.5 -3.92774,27.5 0,0 -5.71484,-21.78593 -5.71484,-25.35743 0,-3.5714 -1.78516,-15.35742 -1.78516,-15.35742 z"
         transform="translate(0,-3.9490035e-5)"
         sodipodi:nodetypes="csssssssssssssscssssssssssccsscsssssccsssscsssssccscsc" />
      <path
         id="path1419"
         d="m 19.694926,622.28465 c 1.4286,13.2143 0,18.5714 -0.3571,21.7857 -0.3572,3.2143 -5.7143,9.2857 -7.8572,9.6428"
         style="fill:none;stroke:#0b4541;stroke-width:2;stroke-linecap:butt;stroke-linejoin:miter;stroke-miterlimit:4;stroke-dasharray:none;stroke-opacity:1" />
      <path
         id="path1421"
         d="m 2.9092257,694.78465 c 5.7143,-5.7143 10.3571003,-10.3572 10.3571003,-10.3572"
         style="fill:none;stroke:#0b4541;stroke-width:2;stroke-linecap:butt;stroke-linejoin:miter;stroke-miterlimit:4;stroke-dasharray:none;stroke-opacity:1" />
      <path
         id="path1423"
         d="m 28.623526,690.14175 c -6.7857,2.1429 -15,9.6429 -18.9286003,13.5714 -3.9286,3.9286 -6.7857,7.1429 -6.7857,7.1429"
         style="fill:none;stroke:#0b4541;stroke-width:2;stroke-linecap:butt;stroke-linejoin:miter;stroke-miterlimit:4;stroke-dasharray:none;stroke-opacity:1" />
      <path
         id="path1425"
         d="m 64.337826,704.07035 c -2.5,12.1428 -4.2858,28.9286 -5,34.6428 -0.7143,5.7143 -4.6429,18.9286 -5,24.2858 -0.3572,5.3571 -2.5,11.4285 -4.2858,13.9285 -1.7857,2.5 -2.8571,3.9286 -2.8571,3.9286"
         style="fill:none;stroke:#0b4541;stroke-width:2;stroke-linecap:butt;stroke-linejoin:miter;stroke-miterlimit:4;stroke-dasharray:none;stroke-opacity:1" />
      <path
         id="path1427"
         d="m 90.409226,561.92745 c 1.4286,1.0715 4.6428,-0.3571 7.5,-0.7143 2.857104,-0.3571 6.071404,-1.7857 9.285704,-0.7142 3.2143,1.0714 5,1.7857 6.7857,1.4285 1.7857,-0.3571 1.7857,-1.7857 1.7857,-1.7857"
         style="fill:none;stroke:#0b4541;stroke-width:2;stroke-linecap:butt;stroke-linejoin:miter;stroke-miterlimit:4;stroke-dasharray:none;stroke-opacity:1" />
      <path
         id="path1429"
         d="m 91.480626,593.71315 c 7.8572,-4.6428 16.428604,-5.3571 20.357204,-5.3571 3.9285,0 10.3571,1.0714 10.3571,1.0714"
         style="fill:none;stroke:#0b4541;stroke-width:2;stroke-linecap:butt;stroke-linejoin:miter;stroke-miterlimit:4;stroke-dasharray:none;stroke-opacity:1" />
      <path
         id="path1431"
         d="m 165.05203,527.64175 c 1.7858,2.1429 2.5,3.5714 6.0715,3.2143 3.5714,-0.3571 7.5,-0.7143 11.4285,-0.7143 3.9286,0 5,-2.5 5,-2.5"
         style="fill:none;stroke:#0b4541;stroke-width:2;stroke-linecap:butt;stroke-linejoin:miter;stroke-miterlimit:4;stroke-dasharray:none;stroke-opacity:1" />
      <path
         id="path1433"
         d="m 179.69493,576.57035 c 6.7857,-2.5 13.5714,-2.1429 17.8571,-2.1429 4.2858,0 13.9286,3.2143 13.9286,3.2143"
         style="fill:none;stroke:#0b4541;stroke-width:2;stroke-linecap:butt;stroke-linejoin:miter;stroke-miterlimit:4;stroke-dasharray:none;stroke-opacity:1" />
      <path
         id="path1435"
         d="m 170.76633,540.49895 c 7.1429,-3.5715 16.7857,-0.3572 16.7857,-0.3572"
         style="fill:none;stroke:#0b4541;stroke-width:2;stroke-linecap:butt;stroke-linejoin:miter;stroke-miterlimit:4;stroke-dasharray:none;stroke-opacity:1" />
      <path
         id="path1437"
         d="m 220.76633,557.28465 c 5,3.5714 7.8572,1.4285 11.7857,1.4285 3.9286,0 7.5,-1.7857 7.5,-1.7857"
         style="fill:none;stroke:#0b4541;stroke-width:2;stroke-linecap:butt;stroke-linejoin:miter;stroke-miterlimit:4;stroke-dasharray:none;stroke-opacity:1" />
      <path
         id="path1439"
         d="m 310.76633,606.21315 c 2.5,8.2143 5,12.1429 7.5,12.5 2.5,0.3572 7.8572,0.3572 7.8572,0.3572"
         style="fill:none;stroke:#0b4541;stroke-width:2;stroke-linecap:butt;stroke-linejoin:miter;stroke-miterlimit:4;stroke-dasharray:none;stroke-opacity:1" />
      <path
         id="path1441"
         d="m 268.98063,598.35605 c 10.3572,-1.7857 18.2143,0.7143 20.7143,1.0714 2.5,0.3572 5.7143,3.2143 5.7143,3.2143"
         style="fill:none;stroke:#0b4541;stroke-width:2;stroke-linecap:butt;stroke-linejoin:miter;stroke-miterlimit:4;stroke-dasharray:none;stroke-opacity:1" />
      <path
         id="path1443"
         d="m 272.55203,607.99895 c 4.6429,1.4285 17.1429,5.3571 17.1429,5.3571"
         style="fill:none;stroke:#0b4541;stroke-width:2;stroke-linecap:butt;stroke-linejoin:miter;stroke-miterlimit:4;stroke-dasharray:none;stroke-opacity:1" />
      <path
         id="path1445"
         d="m 191.83783,581.92745 c 5,0 15,0.7143 15,0.7143"
         style="fill:none;stroke:#0b4541;stroke-width:2;stroke-linecap:butt;stroke-linejoin:miter;stroke-miterlimit:4;stroke-dasharray:none;stroke-opacity:1" />
      <path
         id="path1447"
         d="m 212.19493,568.35605 c 7.5,10.7143 13.5714,19.6429 14.6429,24.6429 1.0714,5 5,29.2857 5.3571,33.2142 0.3571,3.9286 4.2857,15.7143 5,18.9286 0.7143,3.2143 3.2143,8.2143 4.2857,11.4286 1.0714,3.2143 3.5714,6.0714 3.5714,6.0714"
         style="fill:none;stroke:#0b4541;stroke-width:2;stroke-linecap:butt;stroke-linejoin:miter;stroke-miterlimit:4;stroke-dasharray:none;stroke-opacity:1" />
      <path
         id="path1449"
         d="m 302.55203,607.28465 c 1.4286,11.0714 4.6429,26.0714 4.6429,30.7143 0,4.6428 0.7143,16.0714 0.7143,23.2142 0,7.1429 -0.3572,15 -0.3572,22.5 0,7.5 2.5,22.1429 2.5,22.1429 l 1.4286,5"
         style="fill:none;stroke:#0b4541;stroke-width:2;stroke-linecap:butt;stroke-linejoin:miter;stroke-miterlimit:4;stroke-dasharray:none;stroke-opacity:1" />
      <path
         id="path1451"
         d="m 308.26633,737.28465 c 0,4.2857 0.3572,5.7143 0,9.6428 -0.3571,3.9286 -2.8571,8.9286 -2.8571,8.9286"
         style="fill:none;stroke:#0b4541;stroke-width:2;stroke-linecap:butt;stroke-linejoin:miter;stroke-miterlimit:4;stroke-dasharray:none;stroke-opacity:1" />
    </g>
  </g>
</svg>
