<?xml version="1.0" encoding="UTF-8" standalone="no"?>
<svg
   xmlns:dc="http://purl.org/dc/elements/1.1/"
   xmlns:cc="http://creativecommons.org/ns#"
   xmlns:rdf="http://www.w3.org/1999/02/22-rdf-syntax-ns#"
   xmlns:svg="http://www.w3.org/2000/svg"
   xmlns="http://www.w3.org/2000/svg"
   xmlns:sodipodi="http://sodipodi.sourceforge.net/DTD/sodipodi-0.dtd"
   xmlns:inkscape="http://www.inkscape.org/namespaces/inkscape"
   sodipodi:docname="computer-hand-logos.svg"
   inkscape:version="1.0 (4035a4f, 2020-05-01)"
   id="svg1617"
   version="1.1"
   viewBox="0 0 232.99879 173.4312"
   height="173.4312mm"
   width="232.99879mm">
  <defs
     id="defs1611" />
  <sodipodi:namedview
     inkscape:window-maximized="0"
     inkscape:window-y="23"
     inkscape:window-x="0"
     inkscape:window-height="749"
     inkscape:window-width="1252"
     fit-margin-bottom="0"
     fit-margin-right="0"
     fit-margin-left="0"
     fit-margin-top="0"
     showgrid="false"
     inkscape:document-rotation="0"
     inkscape:current-layer="layer1"
     inkscape:document-units="mm"
     inkscape:cy="642.02968"
     inkscape:cx="414.5984"
     inkscape:zoom="0.35"
     inkscape:pageshadow="2"
     inkscape:pageopacity="0.0"
     borderopacity="1.0"
     bordercolor="#666666"
     pagecolor="#ffffff"
     id="base" />
  <metadata
     id="metadata1614">
    <rdf:RDF>
      <cc:Work
         rdf:about="">
        <dc:format>image/svg+xml</dc:format>
        <dc:type
           rdf:resource="http://purl.org/dc/dcmitype/StillImage" />
        <dc:title></dc:title>
      </cc:Work>
    </rdf:RDF>
  </metadata>
  <g
     transform="translate(3.8624927,21.703685)"
     id="layer1"
     inkscape:groupmode="layer"
     inkscape:label="Layer 1">
    <g
       transform="matrix(0.26458333,0,0,0.26458333,-6.0089773,-1161.2341)"
       id="g5567"
       inkscape:export-filename="/Users/fia/code/portfolio/src/images/computer-hand-logos.svg.png"
       inkscape:export-xdpi="90"
       inkscape:export-ydpi="90">
      <path
         style="fill:none;fill-opacity:1;stroke:#0b4541;stroke-width:1.82796;stroke-linecap:butt;stroke-linejoin:miter;stroke-miterlimit:4;stroke-dasharray:none;stroke-opacity:1"
         d="m 136.43333,4307.5523 c 0,0 -8.30935,65.5514 -9.23256,77.5537 -0.9233,12.0024 2.76972,22.1582 12.92559,25.8513 10.15586,3.693 622.27607,255.7426 635.20175,260.3588 12.92558,4.6163 16.6186,5.5395 30.46749,-15.6954 13.84888,-21.2349 82.17003,-129.2561 82.17003,-129.2561"
         id="path2945" />
      <path
         id="path2947"
         style="fill:#0b4541;fill-opacity:1;stroke:none;stroke-width:1.82796;stroke-linecap:butt;stroke-linejoin:miter;stroke-miterlimit:4;stroke-dasharray:none;stroke-opacity:1"
         d="m 886.82227,4306.8867 -563.66407,1.2578 20.21289,7.6543 -33.92578,70.2364 -32.56054,-1.3731 -25.1211,-20.4707 15.72266,-55.9219 -93.19922,0.2071 -10.15625,63.7031 614.89062,245.5879 107.09766,-188.3457 z m -606.39844,1.9102 -7.77149,27.6191 30.64063,11.6035 -5.42578,11.002 -10.86719,-1.0723 -8.81445,-6.3808 2.00781,-7.2383 -8.75781,-3.3164 -4.16797,14.334 16.2207,11.873 0.20313,0.076 0.0195,-0.055 19.85156,1.8496 12.8125,-26.2988 -32.23633,-12.2071 2.68164,-9.3535 33.74219,12.7774 4.125,-8.4512 z m 89.16797,16.9316 70.49609,26.6973 -33.92383,70.2363 -32.4707,-1.3398 -25.21094,-20.5039 z m 7.45312,19.6133 -2.22265,9.0879 22.5625,8.543 -1.38086,0.045 -23.82618,0.7793 -2.55859,8.75 h 0.043 l -0.006,0.019 30.49414,11.6543 -4.96094,11.0508 -11.11328,-0.9766 -8.73242,-6.0976 2.07617,-7.2539 -8.97656,-3.4004 -3.96289,14.0117 16.10742,12.2305 20.02344,1.5586 12.54101,-26.0235 -20.46875,-7.7519 h 0.0625 l 24.59375,-1.0352 4.16993,-8.3496 z m 94.38477,19.7461 c 1.22309,-0.047 2.47516,0.1449 3.6914,0.6055 l 64.6211,24.4707 c 4.86497,1.8423 7.31696,7.2854 5.47461,12.1504 l -24.47071,64.621 c -1.84236,4.865 -7.28542,7.3171 -12.15039,5.4747 l -64.62109,-24.4727 c -4.86498,-1.8423 -7.31696,-7.2834 -5.47461,-12.1484 l 24.47266,-64.6211 c 1.38176,-3.6488 4.78776,-5.9396 8.45703,-6.0801 z m 127.85351,48.418 c 5.85064,-0.1114 12.49555,6.0381 17.69336,15.957 0.34023,0.6536 0.67335,1.3252 0.98828,1.9902 1.00548,-0.4379 2.04713,-0.8618 3.09375,-1.2422 10.5955,-3.9221 19.56334,-3.8213 23.3418,0.7793 3.91337,4.7986 2.06958,14.1558 -4.33203,24.2422 -0.40411,0.6237 -0.80802,1.2466 -1.23047,1.8633 0.88009,0.6691 1.75293,1.3566 2.61914,2.0625 8.68688,7.2151 13.87607,15.3515 11.76953,20.9141 -2.20386,5.8196 -12.02661,8.587 -23.94726,8.082 -0.63864,-0.032 -1.27574,-0.064 -1.92578,-0.1211 -0.11785,0.921 -0.24799,1.8153 -0.38868,2.6856 -1.91164,11.3669 -6.81611,19.4389 -12.85742,20.4257 -5.84132,0.9575 -12.57019,-4.7177 -17.86914,-14.4492 -0.56639,-1.0541 -1.12593,-2.1274 -1.63476,-3.2226 -0.87893,0.3808 -1.7435,0.7249 -2.60157,1.0507 -10.80491,4.0318 -20.25278,3.8133 -24.125,-0.9277 -3.76009,-4.5936 -2.20607,-13.2423 3.58008,-22.7012 0.64439,-1.0364 1.29381,-2.0282 1.98633,-3.0254 -0.75411,-0.5585 -1.47739,-1.1461 -2.19922,-1.7343 -8.86795,-7.3466 -14.18083,-15.9304 -12.01172,-21.6582 2.09958,-5.5442 11.16046,-8.2421 22.25,-7.9258 1.22913,0.025 2.52414,0.095 3.82422,0.209 0.13231,-1.1254 0.29505,-2.2178 0.48242,-3.3223 1.90166,-11.1189 6.4693,-18.8553 12.33594,-19.8242 0.38233,-0.064 0.76816,-0.1 1.1582,-0.1074 z m -110.24609,0.6367 -9.94922,26.2695 c -1.46692,3.8736 -3.45677,4.2543 -5.99023,3.2949 -2.66195,-1.008 -3.07637,-3.2429 -3.47461,-5.8496 l -7.73633,1.4141 c 0.3689,4.5689 2.73902,9.12 8.92578,11.4629 6.84768,2.5932 12.9317,0.7191 15.96289,-7.2852 l 9.99023,-26.3808 z m 110.4707,3.5703 c -0.25104,-0.01 -0.49512,0.011 -0.73047,0.051 -3.53329,0.5721 -7.20844,6.8418 -8.84765,16.3808 -0.15957,1.0311 -0.31965,2.0633 -0.43555,3.0899 4.41623,0.6439 8.77251,1.5576 13.06055,2.7617 3.69808,-2.5039 7.55981,-4.7774 11.5664,-6.7656 -0.31046,-0.6213 -0.6022,-1.2349 -0.9082,-1.8125 -4.49574,-8.551 -9.93944,-13.6245 -13.70508,-13.7051 z m -89.69726,4.6836 c -4.72097,-0.06 -8.55935,2.5631 -10.20703,6.914 -2.38463,6.2969 0.17136,10.6863 4.85546,15.168 l 1.61524,1.5567 c 2.95223,2.9023 4.69058,4.6298 3.68945,7.2734 -0.84122,2.2213 -3.5029,3.0417 -6.69726,1.832 -3.80019,-1.4392 -5.20764,-4.2615 -5.83789,-7.5859 l -7.67383,1.25 c 0.56171,5.3345 3.91368,10.5082 11.09179,13.2265 7.325,2.774 14.24118,1.0273 16.86914,-5.9121 2.44722,-6.4622 -0.15155,-10.7412 -5.66015,-16.039 l -1.61524,-1.5567 c -2.77366,-2.7086 -3.8506,-4.1868 -2.97461,-6.5 0.70915,-1.8721 2.68332,-2.7633 4.94141,-1.9082 2.22135,0.8413 3.29964,2.3207 3.72461,5.1895 l 7.48047,-1.5742 c -0.8371,-5.4389 -3.71473,-8.4825 -8.63477,-10.3457 -1.72109,-0.6518 -3.39314,-0.9683 -4.96679,-0.9883 z m 124.5664,9.2148 c -3.23204,0.054 -7.31455,0.8738 -11.85547,2.5547 -0.97767,0.3644 -1.91935,0.7423 -2.89257,1.1504 1.66616,4.1365 3.03544,8.3906 4.1289,12.709 4.00995,1.9384 7.8912,4.1637 11.61914,6.625 0.39467,-0.5433 0.7523,-1.1003 1.11719,-1.6758 5.52641,-8.7176 7.05709,-16.3646 4.62891,-19.3203 -1.13398,-1.3846 -3.51405,-2.0968 -6.7461,-2.043 z m -18.56445,5.4707 c -2.59364,1.3058 -5.28256,2.8073 -7.97852,4.4942 3.69753,1.2114 7.34949,2.595 10.92188,4.1367 -0.82689,-2.916 -1.80828,-5.8081 -2.94336,-8.6309 z m -36.20898,3.6621 c -8.62941,0.036 -15.23109,2.0771 -16.42383,5.2266 -0.4924,2.3535 0.004,4.8096 1.37109,6.7969 2.24636,3.7685 5.95389,7.3966 9.39844,10.1074 0.65535,0.5421 1.31628,1.0658 2.0039,1.5781 2.79624,-3.5591 5.82168,-6.9477 9.03711,-10.1172 -0.31193,-4.4423 -0.33644,-8.9224 -0.0762,-13.3789 -1.18297,-0.091 -2.37313,-0.1643 -3.55859,-0.1933 -0.5923,-0.016 -1.17666,-0.022 -1.75195,-0.02 z m 9.51562,0.6934 c -0.1725,2.8945 -0.21445,5.9439 -0.0937,9.1172 1.43792,-1.3026 2.92552,-2.5673 4.41602,-3.7871 1.49747,-1.2382 3.04177,-2.4365 4.59179,-3.5918 -3.05801,-0.7382 -6.04798,-1.3246 -8.91406,-1.7383 z m 14.17578,3.1426 c -2.46176,1.7336 -4.8637,3.532 -7.18359,5.4453 -2.31989,1.9132 -4.58089,3.8902 -6.75195,5.9648 0.27061,2.9993 0.63603,5.9723 1.125,8.9493 0.48891,2.977 1.09044,5.9327 1.80468,8.8691 2.63611,1.1872 5.39118,2.3362 8.27344,3.4277 2.88227,1.0915 5.76429,2.0782 8.57617,2.9121 2.45034,-1.7589 4.83248,-3.5652 7.15235,-5.4785 2.34521,-1.9247 4.61332,-3.9207 6.80273,-5.9883 -0.29591,-2.9879 -0.67989,-5.9671 -1.17578,-8.9257 -0.49588,-2.9586 -1.08507,-5.8889 -1.76953,-8.793 -2.65894,-1.2378 -5.44469,-2.4193 -8.3086,-3.5039 -2.86388,-1.0845 -5.71469,-2.038 -8.54492,-2.8789 z m 2.56836,8.7812 c 1.16708,-0.044 2.36227,0.1384 3.52344,0.5782 4.64468,1.7589 6.98157,6.9471 5.22266,11.5917 -1.75894,4.6448 -6.94712,6.9836 -11.5918,5.2247 -4.64465,-1.759 -6.98353,-6.9471 -5.22461,-11.5918 1.31919,-3.4836 4.56908,-5.6695 8.07031,-5.8028 z m 19.15625,0.033 c 0.39596,1.8923 0.74997,3.7903 1.05859,5.6914 0.32003,1.9265 0.58882,3.8761 0.83985,5.8184 2.1071,-2.1828 4.09923,-4.4524 5.97265,-6.8496 -2.41416,-1.6069 -5.05443,-3.1737 -7.87109,-4.6602 z m 109.99219,5.4297 c 2.31382,-0.033 4.67484,1.0135 6.13672,2.7793 l 26.49023,32.4297 c 1.72331,2.101 2.18511,4.9834 1.21875,7.5352 l -14.8164,39.1211 c -0.95941,2.5335 -3.21464,4.387 -5.9043,4.8378 l -41.31836,6.7305 c -1.31951,0.2141 -2.67546,0.079 -3.92383,-0.3945 -1.23,-0.4658 -2.35247,-1.2685 -3.19922,-2.3028 l -8.79101,-10.9902 c -1.32742,-1.5942 -0.37614,-1.6129 0.24414,-1.5879 2.55702,0.066 3.0795,0.073 6.00586,-0.3926 0.31264,-0.05 0.62195,0.132 0.8164,0.3946 l 6.74805,8.4531 c 0.24256,0.3017 0.68363,0.4689 1.04687,0.3965 l 41.31836,-6.7285 c 0.3816,-0.065 0.72425,-0.3555 0.86329,-0.7227 l 14.82031,-39.1406 c 0.14601,-0.3855 0.0762,-0.8116 -0.17774,-1.1387 l -26.48437,-32.3847 c -0.24255,-0.3018 -0.66528,-0.4619 -1.04688,-0.3965 l -41.28125,6.7422 c -0.39997,0.058 -0.74072,0.3508 -0.88672,0.7363 l -14.8164,39.1211 c -0.13904,0.3671 -0.0764,0.8111 0.1914,1.1015 l 7.25977,8.877 c 4.09611,4.427 8.30037,2.6408 9.43359,-0.3516 l 14.62696,-38.6269 c 0.20857,-0.5507 0.80861,-0.8062 1.35937,-0.5977 l 4.29688,1.627 c 0.53241,0.2017 0.83161,0.7968 0.62304,1.3476 l -14.63476,38.6446 c -2.54454,6.7192 -7.67654,9.1839 -14.04688,6.7714 -1.96434,-0.7439 -3.50669,-1.3276 -6.99609,-5.0839 l -6.94531,-8.4864 c -1.7233,-2.101 -2.18511,-4.9833 -1.21875,-7.5351 l 14.81445,-39.1231 c 0.95941,-2.5335 3.22158,-4.4055 5.9043,-4.8379 l 41.2832,-6.7422 c 0.32585,-0.05 0.65578,-0.077 0.98633,-0.082 z m -149.50391,1.0196 c -2.23168,2.3453 -4.27704,4.6974 -6.08593,7.0351 2.57941,1.6695 5.25231,3.2069 7.99804,4.6035 -0.41879,-1.9428 -0.77015,-3.9018 -1.10156,-5.8535 -0.32003,-1.9265 -0.57786,-3.8498 -0.81055,-5.7851 z m 50.83399,0.6308 c -2.74311,3.4743 -5.69043,6.7661 -8.8711,9.8438 0.37837,4.4884 0.47661,8.9975 0.2461,13.4863 0.58799,0.055 1.16363,0.083 1.74023,0.1133 10.30795,0.44 18.47329,-1.7788 19.83594,-5.377 1.26531,-3.3413 -3.08275,-9.985 -10.52539,-16.1621 -0.76997,-0.6274 -1.57543,-1.2674 -2.42578,-1.9043 z m -59.41602,9.7832 c -0.63939,0.9124 -1.25054,1.857 -1.8418,2.8086 -4.95458,8.0945 -6.19537,15.0337 -3.91601,17.8281 1.78,1.6186 4.16407,2.4181 6.57031,2.2168 4.38863,-0.059 8.7297,-0.9355 12.8086,-2.5605 0.78213,-0.2915 1.57786,-0.6202 2.38085,-0.9668 -1.67756,-4.1618 -3.09551,-8.456 -4.21875,-12.8067 -4.08586,-1.9041 -8.00463,-4.081 -11.7832,-6.5195 z m 46.56641,3.8027 c -1.48854,1.3255 -2.98902,2.6259 -4.53711,3.8868 -1.51581,1.2312 -3.04966,2.4544 -4.625,3.6211 3.02576,0.768 6.09666,1.3637 9.18554,1.7988 0.15026,-3.1128 0.14343,-6.1998 -0.0234,-9.3067 z m -29.79688,4.9629 c 0.90673,3.0933 1.93127,6.041 3.03907,8.7696 2.7341,-1.3996 5.39098,-2.9331 7.96289,-4.625 -1.8706,-0.6035 -3.73798,-1.2683 -5.62891,-1.9844 -1.83584,-0.6952 -3.63846,-1.4193 -5.37305,-2.1602 z m 16.19922,5.7774 c -3.6569,2.5615 -7.48891,4.8674 -11.47265,6.9062 0.5113,1.0333 1.01049,2.0413 1.53124,2.9942 4.53617,8.3091 9.92578,12.8687 13.48438,12.2851 2.29774,-0.7462 4.19169,-2.4225 5.20508,-4.5996 2.13086,-3.8531 3.54824,-8.0397 4.15039,-12.3457 0.13122,-0.79 0.2501,-1.6035 0.35156,-2.4258 -4.48519,-0.6279 -8.91385,-1.5711 -13.25,-2.8144 z m 117.21485,4.1894 c 0.33066,-0.01 0.66746,-0.01 1.00976,0 2.48945,0.078 5.2813,0.6812 8.30469,1.8262 10.86815,4.1157 14.82221,9.9163 12.43555,18.2695 -0.086,0.2824 -0.28291,0.5238 -0.54297,0.6562 -0.26005,0.132 -0.5586,0.1453 -0.83399,0.041 l -4.40625,-1.67 c -0.45895,-0.1738 -0.73711,-0.6574 -0.66211,-1.1328 0.715,-5.1029 -1.28438,-7.5799 -8.24218,-10.2148 -7.80232,-2.9548 -9.73221,-0.5788 -10.50391,1.459 -0.93161,2.46 -0.13629,3.5789 9.87305,8.9648 9.88776,5.3188 14.10599,9.1418 11.33203,16.4668 -2.79481,7.38 -10.56862,9.2838 -21.29688,5.2422 -14.85191,-5.6244 -15.37505,-13.609 -13.21289,-19.3184 0.20162,-0.5326 0.79104,-0.8139 1.3418,-0.6054 l 4.38672,1.6621 c 0.49568,0.1877 0.76748,0.6902 0.66015,1.1953 -1.02852,4.7114 0.0814,7.7117 9.0586,11.1113 7.14139,2.7045 10.80025,2.2447 12.23242,-1.5371 0.82733,-2.1847 0.58333,-4.1462 -10.11328,-9.4355 -8.92335,-4.4288 -13.89075,-8.6614 -11.08203,-16.0782 1.67138,-4.4134 5.30168,-6.7686 10.26172,-6.9043 z"
         transform="translate(0,-3.9490035e-5)" />
      <path
         sodipodi:nodetypes="cssssc"
         style="fill:none;fill-opacity:1;stroke:#0b4541;stroke-width:1.82796;stroke-linecap:butt;stroke-linejoin:miter;stroke-miterlimit:4;stroke-dasharray:none;stroke-opacity:1"
         d="m 743.93731,4962.1425 c 0,0 50.77922,-246.5099 52.62573,-256.6658 1.84651,-10.1559 -10.15586,-28.6211 -17.54191,-31.3908 -7.38605,-2.7698 -626.8924,-257.5891 -641.6645,-263.1286 -14.77218,-5.5396 -34.1606,5.5395 -40.623351,11.079 -6.462837,5.5397 -85.86307,87.7096 -85.86307,87.7096"
         id="path2949" />
      <path
         d="m 140.71642,4773.881 c -6.88296,-0.2752 -13.11188,2.8597 -16.2856,7.3029 -4.61624,6.4629 -111.714309,158.8003 -111.714309,158.8003 l -4.6038132,22.1462 H 268.9484 c -3.91884,-25.4049 -10.42827,-43.6432 -11.08021,-48.8586 -0.65285,-5.2228 1.30671,-30.6826 1.30671,-35.2525 0,-2.933 0.78239,-26.0438 1.36025,-44.5011 l -0.38558,-1.5549 c 0,0 -99.71085,-49.8561 -109.86671,-55.3957 -3.17371,-1.7311 -6.43782,-2.5615 -9.56644,-2.6866 z"
         style="fill:#0b4541;fill-opacity:1;stroke:none;stroke-width:1.82796;stroke-linecap:butt;stroke-linejoin:miter;stroke-miterlimit:4;stroke-dasharray:none;stroke-opacity:1"
         id="path2951" />
      <path
         d="m 138.72424,4455.1398 c -3.59063,-0.1633 -5.54789,1.1422 -7.50641,3.1007 -0.55023,0.5503 -3.71716,3.9744 -8.10978,8.7435 l 33.844,14.4469 12.80285,-14.6629 c -7.06934,-3.015 -12.41544,-5.3095 -13.72933,-5.9159 -8.48694,-3.917 -13.71071,-5.5491 -17.30133,-5.7123 z m 32.16956,12.112 1.17996,1.0318 -12.46903,14.2791 38.06937,16.2517 -0.33382,-0.2374 10.96418,-15.4752 c -14.59245,-6.1707 -28.99275,-12.2622 -37.41066,-15.85 z m -48.87289,0.9139 c -6.22735,6.7648 -16.03379,17.4641 -26.371509,28.7475 l 34.659809,15.0271 24.74705,-28.3387 -33.51733,-14.3077 z m 87.29214,15.3628 1.36383,0.9657 -10.80709,15.2574 523.90102,223.6357 c 1.49679,-5.6175 2.51714,-9.4134 2.83834,-10.5376 2.61133,-9.1398 -6.9e-4,-11.7504 -7.83488,-15.0146 -6.48631,-2.7026 -372.75006,-156.5008 -509.46122,-214.3066 z m -51.60411,1.2049 -24.75955,28.3512 285.13648,123.6192 c 1.39889,-0.5618 2.66511,-0.8889 3.6452,-0.8889 3.91704,0 11.09906,3.9173 12.40477,7.1815 0.0867,0.2166 0.25169,0.5499 0.38202,0.8318 l 278.27449,120.6435 -1.09071,2.5152 -231.01535,-100.1539 c 4.61965,3.2858 9.82867,7.5641 12.85819,9.4576 5.22266,3.2641 25.46011,20.2373 28.72429,24.1544 3.26428,3.9171 11.75123,9.14 13.70968,11.7514 1.95858,2.6113 0.65386,5.8759 5.87661,2.6116 5.22275,-3.2642 11.09757,-5.875 15.01461,0.6533 3.91704,6.5285 10.4459,18.2796 14.36303,27.4194 1.37123,3.1996 3.51114,7.8948 5.76236,12.7422 l 123.67279,55.0351 c 8.83753,-33.4059 17.62417,-66.6792 22.3907,-84.5931 z m -64.017813,14.3184 c -9.282874,10.1335 -16.984528,18.5364 -26.9963,29.4794 l 57.236153,25.47 -1.61195,-1.3102 24.77204,-30.488 z m 56.011573,24.2847 -25.14336,30.945 278.05136,123.7371 c -0.59514,-6.2459 -1.11748,-12.3825 -1.11748,-16.0911 0,-7.1813 1.30562,-11.7514 4.5699,-16.3213 1.84714,-2.586 5.36529,-5.3799 8.78276,-7.319 z m -84.958999,7.3279 c -13.988304,15.2907 -18.151003,19.8484 -27.95491,30.5737 l 66.584799,30.3255 26.05734,-32.1142 z m 67.279219,29.94 -26.06983,32.1338 18.65624,8.4972 0.191,-0.2339 0.89792,0.7302 204.64563,93.2062 c 0.22014,-1.0071 0.46206,-2.0765 0.64264,-2.9794 1.30571,-6.5283 3.91783,-12.4042 7.83487,-16.3213 3.91713,-3.917 5.87452,-5.8751 12.40298,-8.4864 6.52837,-2.6114 8.48823,-0.6531 13.05812,1.9582 4.5699,2.6115 11.75013,7.8349 12.40298,12.4048 0.65286,4.5699 1.30521,6.5284 3.91654,13.7097 2.46904,6.7897 6.0723,18.1513 8.66853,26.5536 l 16.69083,7.6028 c 0.0144,-4.0198 0.10175,-7.7808 0.10175,-10.6554 0,-7.8341 -1.30542,-16.3208 -1.95827,-24.8077 -0.25829,-3.3576 -0.72397,-8.0029 -1.18889,-12.7618 z m -97.178116,2.7616 c -8.323608,9.1062 -25.0558869,27.4015 -25.0558869,27.4015 l 2.1349999,57.104 26.500038,-30.6165 -25.953789,-12.1888 1.16568,-2.4813 81.4441,38.2497 -1.615522,-1.3156 29.356226,-36.0844 z m 90.553546,41.2433 -29.70432,36.5127 179.89143,84.4824 c 1.22185,-0.2123 2.5093,-0.3499 3.82729,-0.3499 6.52846,0 15.0154,1.3057 18.27958,4.5699 1.77556,1.7755 5.46648,5.8784 8.79348,10.293 l 17.94576,8.4275 c 0.009,-0.1276 0.0179,-0.3162 0.0268,-0.4409 0.65277,-9.1398 2.61163,-29.3782 2.61163,-34.6009 0,-3.8421 1.41439,-10.1518 2.68124,-15.8215 z m -84.396691,13.856 -28.927794,33.421 0.326683,8.7363 35.102509,17.0996 33.588732,-40.4293 z m 42.653548,20.0326 -33.611937,40.4614 40.477492,19.7166 31.935718,-41.9556 z m 352.851263,9.1808 c 2.61176,4.7997 6.6138,11.5955 9.38078,16.2071 3.91704,6.5285 7.83309,15.6697 7.83309,15.6697 0,0 1.95907,-5.2232 5.22325,-9.7931 2.87355,-4.023 8.27505,-6.5252 12.19947,-7.0673 z m -311.51156,10.2341 -31.960705,41.9877 171.979805,83.7737 c 0.009,-0.1001 0.0275,-0.2193 0.0357,-0.3178 0.65277,-7.834 1.95827,-11.0977 1.95827,-17.6262 v -37.2125 c 0,0 1.7697,-0.9617 4.40567,-1.8422 l -92.15658,-43.2802 -29.27768,43.2802 -2.27067,-1.537 29.03669,-42.9231 z m 346.35344,54.9369 c 0,0 1.6316,10.7722 1.6316,14.0364 0,3.2643 5.22325,23.1761 5.22325,23.1761 0,0 3.58987,-18.2795 3.58987,-25.1344 0,-6.8548 -3.58987,-7.5082 -10.44472,-12.0781 z m -81.04066,12.4137 c 2.58508,9.0525 6.09793,25.1117 7.92234,29.3687 1.95856,4.5699 3.91734,9.1391 7.18152,10.4447 3.26419,1.3058 3.91683,-7.181 1.95827,-15.6679 -1.06251,-4.6043 -1.34733,-10.9278 -1.39418,-17.0104 z m -80.64795,19.3739 c 1.39754,2.1958 2.51591,4.3055 3.0472,6.0765 1.95856,6.5284 5.8766,26.115 5.8766,31.3377 0,5.2228 -0.65336,11.0981 -0.65336,11.0981 l 0.44985,2.6955 3.31318,0.7444 c 0.75369,-4.0818 1.46022,-8.9915 1.46022,-13.2331 0,-8.1816 0.52535,-22.3666 1.1032,-31.8643 z m 269.10258,14.7718 c 3.66215,7.7685 7.33398,15.2326 8.79169,17.4192 2.61133,3.917 4.5699,5.8748 4.5699,15.0146 0,9.1398 -0.65335,9.1403 -0.65335,18.9329 0,0.8584 -0.0328,1.9188 -0.0785,3.0597 l 96.61401,44.0031 -1.13533,2.4956 -95.6322,-43.5568 c -0.72468,12.721 -3.03112,35.0422 -3.03112,41.6556 0,1.8501 -0.3068,5.8385 -0.76047,10.8035 28.26377,12.6836 57.67324,25.8024 64.08564,28.3673 13.05683,5.2228 22.84869,9.7924 24.1544,6.5282 0.63983,-1.5997 12.31594,-45.6096 24.30256,-90.9142 l -0.0517,0.1161 z"
         style="fill:#0b4541;fill-opacity:1;stroke:none;stroke-width:1.82796;stroke-linecap:butt;stroke-linejoin:miter;stroke-miterlimit:4;stroke-dasharray:none;stroke-opacity:1"
         id="path2953" />
      <path
         id="path2955"
         style="fill:#0b4541;fill-opacity:1;stroke:none;stroke-width:1.82796;stroke-linecap:butt;stroke-linejoin:miter;stroke-miterlimit:4;stroke-dasharray:none;stroke-opacity:1"
         d="m 586.90066,4875.4077 -0.0803,0.3409 c -0.75835,7.6373 -1.7056,16.4305 -2.54378,24.1777 l 28.4815,14.0506 6.78523,-22.9013 z m -2.93651,27.4212 c -0.779,7.1986 -1.43194,13.2488 -1.63338,15.6661 -0.27916,3.3498 -1.3968,9.0933 -2.58128,14.9718 l 24.12583,10.4893 8.09193,-27.3122 z" />
      <path
         style="fill:#0b4541;fill-opacity:1;stroke:none;stroke-width:1.82796;stroke-linecap:butt;stroke-linejoin:miter;stroke-miterlimit:4;stroke-dasharray:none;stroke-opacity:1"
         d="m 619.54293,4919.1479 46.35181,21.6558 -4.56989,20.7789 -22.84948,0.6528 -26.76652,-15.0153 z"
         id="path2957"
         sodipodi:nodetypes="cccccc" />
      <path
         sodipodi:nodetypes="csssssssssssssscssssssssssccsscsssssccsssscsssssccscsc"
         d="m 576.45595,4961.5824 v -9.1398 c 0,-5.2227 5.22196,-26.1135 5.87482,-33.9476 0.65285,-7.8341 5.8766,-52.2279 5.8766,-60.062 0,-7.8341 3.26319,-37.8646 3.26319,-47.6572 0,-9.7926 0.65335,-9.7931 0.65335,-18.9329 0,-9.1398 -1.95857,-11.0976 -4.5699,-15.0146 -2.61133,-3.9171 -12.40427,-24.8078 -16.32131,-33.9476 -3.91713,-9.1398 -10.44599,-20.8909 -14.36303,-27.4194 -3.91704,-6.5283 -9.79186,-3.9175 -15.01461,-0.6533 -5.22275,3.2643 -3.91804,-3e-4 -5.87661,-2.6116 -1.95846,-2.6114 -10.4454,-7.8343 -13.70968,-11.7514 -3.26419,-3.9171 -23.50163,-20.8903 -28.72429,-24.1544 -5.22275,-3.2643 -16.97416,-13.7097 -20.8912,-13.7097 -3.91704,0 -10.4455,2.6116 -13.70969,7.1815 -3.26418,4.5699 -5.22325,9.7931 -5.22325,9.7931 0,0 -3.91605,-9.1412 -7.83309,-15.6697 -3.91704,-6.5284 -10.44579,-17.6252 -11.75141,-20.8894 -1.30571,-3.2642 -8.48773,-7.1815 -12.40477,-7.1815 -3.91703,0 -12.40377,5.2214 -15.66795,9.7913 -3.26428,4.5699 -4.5699,9.14 -4.5699,16.3213 0,7.1813 1.95877,23.5024 2.61163,31.9893 0.65285,8.4869 1.95827,16.9736 1.95827,24.8077 0,7.8341 -0.65178,22.1975 1.3067,30.6844 1.95856,8.4869 1.30592,16.9737 -1.95827,15.6679 -3.26418,-1.3056 -5.22296,-5.8748 -7.18152,-10.4447 -1.95848,-4.5699 -5.8768,-22.8507 -8.48823,-31.3377 -2.61133,-8.487 -6.52836,-20.8897 -9.13979,-28.0709 -2.61133,-7.1813 -3.26368,-9.1398 -3.91654,-13.7097 -0.65285,-4.5699 -7.83308,-9.7933 -12.40298,-12.4048 -4.56989,-2.6113 -6.52975,-4.5696 -13.05812,-1.9582 -6.52846,2.6113 -8.48585,4.5694 -12.40298,8.4864 -3.91704,3.9171 -6.52916,9.793 -7.83487,16.3213 -1.30571,6.5285 -3.91655,16.3218 -3.91655,21.5446 0,5.2227 -1.95885,25.4611 -2.61162,34.6009 -0.65285,9.1398 -1.30492,26.1126 -1.30492,35.2524 0,9.1398 -3.26497,21.5446 -3.26497,21.5446 l -1.95828,-11.7514 c 0,0 0.65336,-5.8753 0.65336,-11.0981 0,-5.2227 -3.91804,-24.8093 -5.8766,-31.3377 -1.95848,-6.5284 -11.75033,-17.6252 -15.01461,-20.8894 -3.26418,-3.2642 -11.75112,-4.5699 -18.27958,-4.5699 -6.52837,0 -12.40477,3.2632 -12.40477,3.2632 v 37.2125 c 0,6.5285 -1.3055,9.7922 -1.95827,17.6262 -0.65285,7.8342 -3.91654,20.8915 -3.91654,28.0728 0,7.1813 -1.95827,62.0202 -1.95827,66.5901 0,4.5699 -1.95956,30.0297 -1.30671,35.2525 0.65286,5.2227 7.18102,23.5031 11.09806,48.9639 m 202.3821,-249.386 c 6.85485,4.5699 10.44472,5.2233 10.44472,12.0781 0,6.8549 -3.58987,25.1344 -3.58987,25.1344 0,0 -5.22325,-19.9118 -5.22325,-23.1761 0,-3.2642 -1.6316,-14.0364 -1.6316,-14.0364 z"
         style="fill:none;fill-opacity:1;stroke:#0b4541;stroke-width:1.82796;stroke-linecap:butt;stroke-linejoin:miter;stroke-miterlimit:4;stroke-dasharray:none;stroke-opacity:1"
         id="path2959" />
      <path
         style="fill:none;stroke:#0b4541;stroke-width:1.82796;stroke-linecap:butt;stroke-linejoin:miter;stroke-miterlimit:4;stroke-dasharray:none;stroke-opacity:1"
         d="m 279.08572,4729.4973 c 1.30571,12.0775 0,16.9738 -0.32638,19.9116 -0.32647,2.9378 -5.22275,8.487 -7.18132,8.8133"
         id="path2961" />
      <path
         style="fill:none;stroke:#0b4541;stroke-width:1.82796;stroke-linecap:butt;stroke-linejoin:miter;stroke-miterlimit:4;stroke-dasharray:none;stroke-opacity:1"
         d="m 263.74394,4795.7607 c 5.22275,-5.2227 9.46617,-9.4662 9.46617,-9.4662"
         id="path2963" />
      <path
         style="fill:none;stroke:#0b4541;stroke-width:1.82796;stroke-linecap:butt;stroke-linejoin:miter;stroke-miterlimit:4;stroke-dasharray:none;stroke-opacity:1"
         d="m 287.24627,4791.5172 c -6.20198,1.9586 -13.70968,8.8134 -17.30034,12.404 -3.59066,3.5907 -6.20199,6.5285 -6.20199,6.5285"
         id="path2965" />
      <path
         style="fill:none;stroke:#0b4541;stroke-width:1.82796;stroke-linecap:butt;stroke-linejoin:miter;stroke-miterlimit:4;stroke-dasharray:none;stroke-opacity:1"
         d="m 319.8884,4804.2477 c -2.28495,11.0982 -3.91713,26.4401 -4.5699,31.6628 -0.65285,5.2227 -4.24351,17.3003 -4.56989,22.1967 -0.32648,4.8963 -2.28495,10.4454 -3.91714,12.7303 -1.63209,2.285 -2.61132,3.5907 -2.61132,3.5907"
         id="path2967" />
      <path
         style="fill:none;stroke:#0b4541;stroke-width:1.82796;stroke-linecap:butt;stroke-linejoin:miter;stroke-miterlimit:4;stroke-dasharray:none;stroke-opacity:1"
         d="m 343.71711,4674.332 c 1.30571,0.9794 4.24342,-0.3263 6.85484,-0.6528 2.61134,-0.3264 5.54914,-1.6321 8.48694,-0.6528 2.93781,0.9793 4.5699,1.6321 6.20199,1.3056 1.63209,-0.3263 1.63209,-1.6321 1.63209,-1.6321"
         id="path2969" />
      <path
         style="fill:none;stroke:#0b4541;stroke-width:1.82796;stroke-linecap:butt;stroke-linejoin:miter;stroke-miterlimit:4;stroke-dasharray:none;stroke-opacity:1"
         d="m 344.69635,4703.3835 c 7.18131,-4.2434 15.0154,-4.8963 18.60606,-4.8963 3.59056,0 9.46617,0.9793 9.46617,0.9793"
         id="path2971" />
      <path
         style="fill:none;stroke:#0b4541;stroke-width:1.82796;stroke-linecap:butt;stroke-linejoin:miter;stroke-miterlimit:4;stroke-dasharray:none;stroke-opacity:1"
         d="m 411.93907,4642.9956 c 1.63219,1.9586 2.28495,3.2642 5.54923,2.9378 3.26418,-0.3264 6.85484,-0.6528 10.44541,-0.6528 3.59065,0 4.56989,-2.285 4.56989,-2.285"
         id="path2973" />
      <path
         style="fill:none;stroke:#0b4541;stroke-width:1.82796;stroke-linecap:butt;stroke-linejoin:miter;stroke-miterlimit:4;stroke-dasharray:none;stroke-opacity:1"
         d="m 425.32238,4687.7153 c 6.20198,-2.2849 12.40397,-1.9585 16.32101,-1.9585 3.91713,0 12.73045,2.9378 12.73045,2.9378"
         id="path2975" />
      <path
         style="fill:none;stroke:#0b4541;stroke-width:1.82796;stroke-linecap:butt;stroke-linejoin:miter;stroke-miterlimit:4;stroke-dasharray:none;stroke-opacity:1"
         d="m 417.16182,4654.7468 c 6.52846,-3.2642 15.34178,-0.3264 15.34178,-0.3264"
         id="path2977" />
      <path
         style="fill:none;stroke:#0b4541;stroke-width:1.82796;stroke-linecap:butt;stroke-linejoin:miter;stroke-miterlimit:4;stroke-dasharray:none;stroke-opacity:1"
         d="m 462.86078,4670.0886 c 4.56989,3.2642 7.18131,1.3056 10.77188,1.3056 3.59066,0 6.85484,-1.6321 6.85484,-1.6321"
         id="path2979" />
      <path
         style="fill:none;stroke:#0b4541;stroke-width:1.82796;stroke-linecap:butt;stroke-linejoin:miter;stroke-miterlimit:4;stroke-dasharray:none;stroke-opacity:1"
         d="m 545.11889,4714.8082 c 2.28495,7.5077 4.5699,11.0984 6.85485,11.4248 2.28495,0.3264 7.18131,0.3264 7.18131,0.3264"
         id="path2981" />
      <path
         style="fill:none;stroke:#0b4541;stroke-width:1.82796;stroke-linecap:butt;stroke-linejoin:miter;stroke-miterlimit:4;stroke-dasharray:none;stroke-opacity:1"
         d="m 506.92764,4707.627 c 9.46626,-1.6321 16.64749,0.6529 18.93244,0.9792 2.28494,0.3265 5.22275,2.9379 5.22275,2.9379"
         id="path2983" />
      <path
         style="fill:none;stroke:#0b4541;stroke-width:1.82796;stroke-linecap:butt;stroke-linejoin:miter;stroke-miterlimit:4;stroke-dasharray:none;stroke-opacity:1"
         d="m 510.19182,4716.4404 c 4.24352,1.3056 15.66826,4.8963 15.66826,4.8963"
         id="path2985" />
      <path
         style="fill:none;stroke:#0b4541;stroke-width:1.82796;stroke-linecap:butt;stroke-linejoin:miter;stroke-miterlimit:4;stroke-dasharray:none;stroke-opacity:1"
         d="m 436.42073,4692.6116 c 4.5699,0 13.70969,0.6529 13.70969,0.6529"
         id="path2987" />
      <path
         style="fill:none;stroke:#0b4541;stroke-width:1.82796;stroke-linecap:butt;stroke-linejoin:miter;stroke-miterlimit:4;stroke-dasharray:none;stroke-opacity:1"
         d="m 455.0267,4680.2076 c 6.85484,9.7927 12.40397,17.9532 13.3833,22.5231 0.97924,4.5699 4.5699,26.7666 4.89628,30.3571 0.32638,3.5907 3.91704,14.3626 4.56989,17.3004 0.65286,2.9378 2.93781,7.5077 3.91704,10.4455 0.97924,2.9378 3.26419,5.5491 3.26419,5.5491"
         id="path2989" />
      <path
         style="fill:none;stroke:#0b4541;stroke-width:1.82796;stroke-linecap:butt;stroke-linejoin:miter;stroke-miterlimit:4;stroke-dasharray:none;stroke-opacity:1"
         d="m 537.6112,4715.7876 c 1.30571,10.119 4.24351,23.8287 4.24351,28.0722 0,4.2434 0.65285,14.6889 0.65285,21.2173 0,6.5284 -0.32647,13.7097 -0.32647,20.5645 0,6.8549 2.28495,20.2382 2.28495,20.2382 l 1.30571,4.5699"
         id="path2991" />
      <path
         style="fill:none;stroke:#0b4541;stroke-width:1.82796;stroke-linecap:butt;stroke-linejoin:miter;stroke-miterlimit:4;stroke-dasharray:none;stroke-opacity:1"
         d="m 542.83395,4834.6048 c 0,3.9171 0.32647,5.2228 0,8.8134 -0.32639,3.5906 -2.61133,8.1605 -2.61133,8.1605"
         id="path2993" />
    </g>
  </g>
</svg>
